<?xml version="1.0" encoding="UTF-8"?>
<svg xmlns="http://www.w3.org/2000/svg" xmlns:xlink="http://www.w3.org/1999/xlink" width="15px" height="16px" viewBox="0 0 15 16" version="1.1">
<g id="surface1">
<path style=" stroke:none;fill-rule:nonzero;fill:rgb(0%,0%,0%);fill-opacity:1;" d="M 15.25 8.179688 C 15.25 12.601562 12.222656 15.75 7.75 15.75 C 3.460938 15.75 0 12.289062 0 8 C 0 3.710938 3.460938 0.25 7.75 0.25 C 9.835938 0.25 11.59375 1.015625 12.945312 2.277344 L 10.835938 4.304688 C 8.078125 1.644531 2.945312 3.644531 2.945312 8 C 2.945312 10.703125 5.105469 12.894531 7.75 12.894531 C 10.820312 12.894531 11.96875 10.695312 12.148438 9.554688 L 7.75 9.554688 L 7.75 6.886719 L 15.128906 6.886719 C 15.199219 7.285156 15.25 7.664062 15.25 8.179688 Z M 15.25 8.179688 "/>
</g>
</svg>
